<svg height="512pt" viewBox="-2 0 512 512.00104" width="512pt" xmlns="http://www.w3.org/2000/svg"><path d="m493.167969 199.277344v116.058594c0 11.890624-9.640625 21.535156-21.53125 21.535156l-73.246094 30.96875-119.402344-30.96875c-11.890625 0-21.53125-9.644532-21.53125-21.535156l-88.496093-60.515626 88.496093-55.542968c0-11.890625 9.640625-21.535156 21.53125-21.535156h192.648438c11.890625 0 21.53125 9.644531 21.53125 21.535156zm0 0" fill="#4588b5"/><path d="m493.167969 199.277344v62.726562c0 11.890625-9.640625 21.53125-21.53125 21.53125h-192.648438c-11.890625 0-21.53125-9.640625-21.53125-21.53125v-62.726562c0-11.890625 9.640625-21.535156 21.53125-21.535156h192.648438c11.890625 0 21.53125 9.644531 21.53125 21.535156zm0 0" fill="#6b9dc6"/><path d="m507.242188 358.402344v78.308594c0 .472656-.011719.941406-.054688 1.414062-.71875 11.230469-10.058594 20.109375-21.480469 20.109375h-464.171875c-11.890625 0-21.535156-9.632813-21.535156-21.523437v-78.308594c0-9.308594 5.910156-17.234375 14.171875-20.234375 2.289063-.839844 4.777344-1.296875 7.363281-1.296875h464.171875c11.890625 0 21.535157 9.640625 21.535157 21.53125zm0 0" fill="#f79e31"/><path d="m507.242188 358.402344v78.308594c0 .472656-.011719.941406-.054688 1.414062-2.300781.835938-4.777344 1.296875-7.359375 1.296875h-464.175781c-11.890625 0-21.535156-9.644531-21.535156-21.535156v-78.308594c0-.46875.011718-.941406.054687-1.410156 2.289063-.839844 4.777344-1.296875 7.363281-1.296875h464.171875c11.890625 0 21.535157 9.640625 21.535157 21.53125zm0 0" fill="#ffe66b"/><path d="m222.140625 336.871094h13.792969c11.890625 0 21.523437-9.644532 21.523437-21.535156v-203.195313c0-11.890625-9.632812-21.53125-21.523437-21.53125h-190.886719c-11.890625 0-21.535156 9.640625-21.535156 21.53125v203.195313c0 11.890624 9.644531 21.535156 21.535156 21.535156h13.792969" fill="#ef5361"/><path d="m257.4375 111.523438h-181.019531c-11.890625 0-21.53125 9.640624-21.53125 21.53125v203.199218c0 .207032 0 .40625.019531.617188h-9.859375c-11.890625 0-21.535156-9.644532-21.535156-21.535156v-203.195313c0-11.890625 9.644531-21.53125 21.535156-21.53125l94.109375-38.140625 96.777344 38.140625c11.683594 0 21.1875 9.304687 21.503906 20.914063zm0 0" fill="#dc4250"/><path d="m291.738281 21.53125v47.542969c0 11.890625-9.644531 21.535156-21.535156 21.535156h-248.667969c-11.898437 0-21.53124975-9.644531-21.53124975-21.535156v-47.542969c0-11.890625 9.63281275-21.53125 21.53124975-21.53125h248.667969c11.890625 0 21.535156 9.640625 21.535156 21.53125zm0 0" fill="#f79e31"/><path d="m291.738281 21.53125v47.542969c0 11.890625-9.644531 21.535156-21.535156 21.535156h-202.652344c-11.902343 0-21.53125-9.644531-21.53125-21.535156v-47.542969c0-11.890625 9.628907-21.53125 21.53125-21.53125h202.652344c11.890625 0 21.535156 9.640625 21.535156 21.53125zm0 0" fill="#ffe66b"/><path d="m247.085938 405.402344c0 58.871094-47.722657 106.597656-106.597657 106.597656s-106.601562-47.726562-106.601562-106.597656c0-58.875 47.726562-106.601563 106.601562-106.601563s106.597657 47.726563 106.597657 106.601563zm0 0" fill="#666"/><path d="m470.46875 439.917969c0 39.8125-32.269531 72.082031-72.078125 72.082031s-72.082031-32.269531-72.082031-72.082031c0-39.808594 32.273437-72.078125 72.082031-72.078125s72.078125 32.269531 72.078125 72.078125zm0 0" fill="#666"/><path d="m428.605469 439.917969c0 16.6875-13.527344 30.21875-30.214844 30.21875s-30.214844-13.53125-30.214844-30.21875c0-16.683594 13.527344-30.214844 30.214844-30.214844s30.214844 13.53125 30.214844 30.214844zm0 0" fill="#4d4d4d"/><path d="m186.003906 405.402344c0 25.136718-20.378906 45.515625-45.515625 45.515625s-45.515625-20.378907-45.515625-45.515625c0-25.140625 20.378906-45.515625 45.515625-45.515625s45.515625 20.375 45.515625 45.515625zm0 0" fill="#4d4d4d"/><path d="m456.230469 50.34375v104.371094c0 12.714844-10.3125 23.027344-23.027344 23.027344h-52.457031c-12.71875 0-23.019532-10.3125-23.019532-23.027344v-104.371094c0-12.714844 10.300782-23.015625 23.019532-23.015625h52.457031c12.714844 0 23.027344 10.300781 23.027344 23.015625zm0 0" fill="#3dad52"/><path d="m456.230469 50.34375v104.371094c0 12.714844-10.3125 23.027344-23.027344 23.027344h-13.242187c-12.714844 0-23.015626-10.3125-23.015626-23.027344v-104.371094c0-12.714844 10.300782-23.015625 23.015626-23.015625h13.242187c12.714844 0 23.027344 10.300781 23.027344 23.015625zm0 0" fill="#4dc168"/><path d="m198.644531 132.25h-116.320312c-9.296875 0-16.832031 7.535156-16.832031 16.832031v54.179688c0 9.296875 7.535156 16.832031 16.832031 16.832031h116.324219c9.292968 0 16.832031-7.535156 16.832031-16.832031v-54.179688c-.003907-9.296875-7.539063-16.832031-16.835938-16.832031zm0 0" fill="#dae6ed"/></svg>